<svg xmlns="http://www.w3.org/2000/svg" viewBox="0 0 64 64">
  <path
    fill="#ff4d1d"
    d="M32 58c-11.1 0-20-8.6-20-19.2 0-8.1 4.3-13.5 9.1-19.2 2.8-3.3 5.8-6.9 8.1-11.7.6-1.3 2.5-1.2 3 .2 1.3 3.9 1.1 7.9.3 11.1 3-2 5.4-4.8 7.2-8 .7-1.3 2.7-1.1 3.1.4 1.5 5.7 5.2 10.1 8.3 14.4 2.7 3.7 4.9 7.1 4.9 12.8C56 49.4 46.8 58 32 58Z"
  />
  <path
    fill="#ffb238"
    d="M32.1 51.5c-6.6 0-11.9-5-11.9-11.2 0-4.8 2.6-8 5.5-11.5 1.6-2 3.4-4.1 4.8-6.9.4-.8 1.5-.7 1.8.1.8 2.3.7 4.7.2 6.6 1.8-1.2 3.2-2.8 4.3-4.7.4-.8 1.6-.6 1.9.2.9 3.4 3.1 6 5 8.5 1.6 2.2 2.9 4.3 2.9 7.7 0 6.2-5.5 11.2-14.5 11.2Z"
  />
</svg>
